<svg width="25" height="12" viewBox="0 0 25 12" fill="none" xmlns="http://www.w3.org/2000/svg">
<path opacity="0.35" d="M2.66699 0.5H19.333C20.5296 0.5 21.5 1.47037 21.5 2.66699V8.66699C21.4998 9.86346 20.5295 10.833 19.333 10.833H2.66699C1.47048 10.833 0.500175 9.86346 0.5 8.66699V2.66699C0.5 1.54509 1.35265 0.621597 2.44531 0.510742L2.66699 0.5Z" stroke="black"/>
<path opacity="0.4" d="M23 3.66699V7.66699C23.8047 7.32822 24.3281 6.54013 24.3281 5.66699C24.3281 4.79386 23.8047 4.00577 23 3.66699Z" fill="black"/>
<path d="M2 3.33333C2 2.59695 2.59695 2 3.33333 2H18.6666C19.403 2 19.9999 2.59695 19.9999 3.33333V8C19.9999 8.73638 19.403 9.33333 18.6666 9.33333H3.33333C2.59695 9.33333 2 8.73638 2 8V3.33333Z" fill="black"/>
</svg>
