<svg width="28" height="28" viewBox="0 0 28 28" fill="none" xmlns="http://www.w3.org/2000/svg">
<rect width="28" height="28" rx="8" fill="white"/>
<path d="M0 8C0 3.58172 3.58172 0 8 0H10.5V10.5H0V8Z" fill="#00140D" fill-opacity="0.16"/>
<path d="M17.5 0H20C24.4183 0 28 3.58172 28 8V20C28 24.4183 24.4183 28 20 28H17.5V0Z" fill="#00140D" fill-opacity="0.16"/>
<path d="M0 17.5H10.5V28H8C3.58172 28 0 24.4183 0 20V17.5Z" fill="#00140D" fill-opacity="0.16"/>
<rect x="0.5" y="0.5" width="27" height="27" rx="7.5" stroke="#002D1E" stroke-opacity="0.07"/>
<path d="M21.0452 0C22.9419 0 24.6581 0.706872 26.0129 2.03226C27.2774 3.35764 28 5.12482 28 6.98036C28 8.65919 27.3677 10.4264 26.0129 12.2819C25.3708 13.1792 23.6111 14.9573 22.3583 16.1867C21.6012 16.9297 20.397 16.9307 19.6382 16.1894C18.3522 14.933 16.5293 13.0979 15.8968 12.1935C14.6323 10.4264 14 8.57083 14 6.80365C14 4.94811 14.7226 3.26928 16.0774 1.9439C17.4323 0.706873 19.1484 0 21.0452 0Z" fill="#0C2C1C"/>
<circle cx="21" cy="7" r="2.625" fill="white"/>
</svg>
