<svg width="24" height="24" viewBox="0 0 24 24" fill="none" xmlns="http://www.w3.org/2000/svg">
<path d="M19.8366 16.1328C20.2271 15.7423 20.8603 15.7423 21.2508 16.1328C21.6414 16.5233 21.6414 17.1565 21.2508 17.547L18.4224 20.3754C17.6414 21.1565 16.375 21.1565 15.594 20.3754L12.7655 17.547C12.375 17.1565 12.375 16.5233 12.7655 16.1328C13.1561 15.7423 13.7892 15.7423 14.1798 16.1328L16.0082 17.9612V7.00821C16.0082 6.45593 16.4559 6.00821 17.0082 6.00821C17.5605 6.00821 18.0082 6.45593 18.0082 7.00821V17.9612L19.8366 16.1328Z" fill="#191F1C"/>
<path d="M9.83662 7.86651C10.2271 8.25704 10.8603 8.25704 11.2508 7.86651C11.6414 7.47599 11.6414 6.84282 11.2508 6.4523L8.4224 3.62387C7.64136 2.84282 6.37503 2.84282 5.59398 3.62387L2.76555 6.4523C2.37503 6.84282 2.37503 7.47599 2.76555 7.86651C3.15607 8.25704 3.78924 8.25704 4.17976 7.86651L6.00819 6.03809L6.00819 16.9911C6.00819 17.5434 6.4559 17.9911 7.00819 17.9911C7.56048 17.9911 8.00819 17.5434 8.00819 16.9911L8.00819 6.03809L9.83662 7.86651Z" fill="#191F1C"/>
</svg>
